<?xml version="1.0" encoding="UTF-8"?>
<svg xmlns="http://www.w3.org/2000/svg" xmlns:xlink="http://www.w3.org/1999/xlink" viewBox="0 0 50 50">
<g id="surface65097">
<path style=" stroke:none;fill-rule:nonzero;fill:rgb(1.568628%,44.705883%,30.19608%);fill-opacity:1;" d="M 18.039062 24.96875 C 18.269531 24.730469 18.5 24.5 18.738281 24.261719 C 18.96875 24.019531 19.210938 23.78125 19.441406 23.539062 L 12.261719 16.261719 C 11.738281 15.730469 11.039062 15.429688 10.300781 15.429688 C 9.558594 15.429688 8.859375 15.730469 8.339844 16.261719 L 1.808594 22.890625 C 0.730469 23.96875 0.730469 25.738281 1.808594 26.828125 L 9.578125 34.710938 C 9.640625 34.328125 9.75 33.96875 9.898438 33.621094 C 10.039062 33.308594 10.210938 33.011719 10.429688 32.730469 C 10.550781 32.550781 10.699219 32.378906 10.859375 32.210938 C 12.371094 30.671875 13.878906 29.148438 15.398438 27.628906 C 16.28125 26.738281 17.160156 25.859375 18.039062 24.96875 Z M 48.210938 14.53125 L 41.589844 7.800781 C 40.570312 6.769531 38.78125 6.769531 37.75 7.800781 L 21.300781 24.511719 C 21.148438 24.660156 21.011719 24.808594 20.851562 24.960938 L 20.851562 24.96875 C 20.621094 25.210938 20.378906 25.449219 20.148438 25.679688 L 20.140625 25.679688 L 19.441406 26.390625 L 18.179688 27.671875 L 16.808594 29.039062 C 15.300781 30.558594 13.789062 32.078125 12.289062 33.609375 C 12.121094 33.78125 11.980469 33.96875 11.859375 34.179688 C 11.671875 34.511719 11.550781 34.878906 11.511719 35.25 C 11.488281 35.480469 11.5 35.710938 11.539062 35.929688 C 11.558594 36.058594 11.589844 36.191406 11.628906 36.320312 C 11.648438 36.398438 11.679688 36.488281 11.71875 36.570312 C 11.75 36.648438 11.789062 36.730469 11.828125 36.808594 C 11.890625 36.941406 11.96875 37.070312 12.070312 37.191406 C 12.121094 37.261719 12.179688 37.320312 12.238281 37.390625 L 12.410156 37.578125 L 18.878906 44.148438 L 18.929688 44.199219 C 18.988281 44.261719 19.058594 44.320312 19.128906 44.378906 C 19.261719 44.480469 19.390625 44.570312 19.53125 44.648438 C 19.929688 44.878906 20.378906 45 20.851562 45 C 21.421875 45 21.960938 44.820312 22.410156 44.488281 C 22.480469 44.441406 22.539062 44.390625 22.601562 44.339844 C 22.660156 44.300781 22.710938 44.25 22.761719 44.199219 L 22.800781 44.148438 L 29.339844 37.519531 L 48.210938 18.371094 C 49.261719 17.308594 49.261719 15.589844 48.210938 14.53125 Z M 48.210938 14.53125 "/>
</g>
</svg>
