<?xml version="1.0" encoding="UTF-8"?>
<svg xmlns="http://www.w3.org/2000/svg" xmlns:xlink="http://www.w3.org/1999/xlink" viewBox="0 0 24 24" width="24px" height="24px">
<g id="surface269955">
<path style=" stroke:none;fill-rule:nonzero;fill:rgb(100%,100%,100%);fill-opacity:1;" d="M 17 12 C 17 14.761719 14.761719 17 12 17 C 9.238281 17 7 14.761719 7 12 C 7 9.238281 9.238281 7 12 7 C 14.761719 7 17 9.238281 17 12 Z M 17 12 "/>
<path style=" stroke:none;fill-rule:nonzero;fill:rgb(10.980392%,12.54902%,15.294118%);fill-opacity:1;" d="M 15.664062 14.605469 L 11.585938 21.988281 C 6.253906 21.773438 2 17.378906 2 12 C 2 6.480469 6.480469 2 12 2 L 12 7.5 C 9.515625 7.5 7.5 9.515625 7.5 12 C 7.5 14.484375 9.515625 16.5 12 16.5 C 13.515625 16.5 14.851562 15.753906 15.664062 14.605469 Z M 15.664062 14.605469 "/>
<path style=" stroke:none;fill-rule:nonzero;fill:rgb(0%,39.607844%,100%);fill-opacity:1;" d="M 22 12 C 22 17.523438 17.523438 22 12 22 L 11.578125 22 L 15.664062 14.605469 C 16.191406 13.871094 16.5 12.96875 16.5 12 C 16.5 9.515625 14.484375 7.5 12 7.5 L 12 2 C 15.90625 2 19.273438 4.238281 20.925781 7.5 C 21.605469 8.855469 22 10.378906 22 12 Z M 22 12 "/>
<path style=" stroke:none;fill-rule:nonzero;fill:rgb(32.156864%,32.156864%,32.156864%);fill-opacity:1;" d="M 20.921875 7.5 L 12 7.5 C 9.515625 7.5 7.5 9.515625 7.5 12 C 7.5 12.746094 7.679688 13.445312 8.003906 14.066406 L 8 14.066406 L 3.578125 6.628906 L 3.570312 6.628906 C 5.339844 3.84375 8.453125 2 12 2 C 15.898438 2 19.273438 4.238281 20.921875 7.5 Z M 20.921875 7.5 "/>
<path style=" stroke:none;fill-rule:nonzero;fill:rgb(1.568628%,44.705883%,30.19608%);fill-opacity:1;" d="M 15.5 12 C 15.5 13.933594 13.933594 15.5 12 15.5 C 10.066406 15.5 8.5 13.933594 8.5 12 C 8.5 10.066406 10.066406 8.5 12 8.5 C 13.933594 8.5 15.5 10.066406 15.5 12 Z M 15.5 12 "/>
</g>
</svg>
