<?xml version="1.0" encoding="UTF-8"?>
<svg xmlns="http://www.w3.org/2000/svg" xmlns:xlink="http://www.w3.org/1999/xlink" viewBox="0 0 24 24" width="24px" height="24px">
<g id="surface72180">
<path style=" stroke:none;fill-rule:nonzero;fill:rgb(87.450981%,16.078432%,20.784314%);fill-opacity:1;" d="M 23.628906 12 C 23.628906 5.578125 18.421875 0.371094 12 0.371094 C 5.578125 0.371094 0.371094 5.578125 0.371094 12 C 0.371094 18.421875 5.578125 23.628906 12 23.628906 C 18.421875 23.628906 23.628906 18.421875 23.628906 12 Z M 23.628906 12 "/>
<path style=" stroke:none;fill-rule:nonzero;fill:rgb(100%,100%,100%);fill-opacity:1;" d="M 13.359375 12 L 16.757812 8.054688 C 17.128906 7.621094 17.082031 6.976562 16.648438 6.601562 C 16.21875 6.230469 15.570312 6.277344 15.203125 6.707031 L 12 10.425781 L 8.804688 6.710938 C 8.433594 6.28125 7.78125 6.234375 7.351562 6.605469 C 6.917969 6.976562 6.871094 7.625 7.242188 8.058594 L 10.640625 12 L 7.242188 15.945312 C 6.871094 16.378906 6.917969 17.023438 7.351562 17.398438 C 7.542969 17.570312 7.78125 17.648438 8.019531 17.648438 C 8.3125 17.648438 8.597656 17.527344 8.796875 17.292969 L 11.996094 13.578125 L 15.191406 17.292969 C 15.394531 17.527344 15.683594 17.648438 15.96875 17.648438 C 16.210938 17.648438 16.449219 17.570312 16.640625 17.398438 C 17.070312 17.03125 17.117188 16.378906 16.75 15.945312 Z M 13.359375 12 "/>
</g>
</svg>
